<mxfile host="Electron" agent="Mozilla/5.0 (Windows NT 10.0; Win64; x64) AppleWebKit/537.36 (KHTML, like Gecko) draw.io/27.0.2 Chrome/134.0.6998.205 Electron/35.3.0 Safari/537.36" version="27.0.2">
  <diagram name="Seite-1" id="BjCUR2Z8RTLdVfXmwYke">
    <mxGraphModel dx="4903" dy="963" grid="1" gridSize="10" guides="1" tooltips="1" connect="1" arrows="1" fold="1" page="1" pageScale="1" pageWidth="3300" pageHeight="4681" math="0" shadow="0">
      <root>
        <mxCell id="0" />
        <mxCell id="1" parent="0" />
        <mxCell id="4SUFtR9MNtc7UPsP3DeQ-1" value="Intro Fenster" style="rounded=1;whiteSpace=wrap;html=1;absoluteArcSize=1;arcSize=14;strokeWidth=2;" vertex="1" parent="1">
          <mxGeometry x="190" y="40" width="290" height="100" as="geometry" />
        </mxCell>
        <mxCell id="4SUFtR9MNtc7UPsP3DeQ-2" value="Vorstellung der Charaktere" style="rounded=1;whiteSpace=wrap;html=1;absoluteArcSize=1;arcSize=14;strokeWidth=2;" vertex="1" parent="1">
          <mxGeometry x="-120" y="325" width="290" height="100" as="geometry" />
        </mxCell>
        <mxCell id="4SUFtR9MNtc7UPsP3DeQ-3" value="Aufruf der Spielstände" style="rounded=1;whiteSpace=wrap;html=1;absoluteArcSize=1;arcSize=14;strokeWidth=2;" vertex="1" parent="1">
          <mxGeometry x="260" y="370" width="150" height="90" as="geometry" />
        </mxCell>
        <mxCell id="4SUFtR9MNtc7UPsP3DeQ-4" value="Auswahl" style="strokeWidth=2;html=1;shape=mxgraph.flowchart.decision;whiteSpace=wrap;movable=1;resizable=1;rotatable=1;deletable=1;editable=1;locked=0;connectable=1;" vertex="1" parent="1">
          <mxGeometry x="285" y="220" width="100" height="100" as="geometry" />
        </mxCell>
        <mxCell id="4SUFtR9MNtc7UPsP3DeQ-6" value="" style="endArrow=classic;html=1;rounded=0;exitX=0;exitY=0.5;exitDx=0;exitDy=0;exitPerimeter=0;entryX=0.524;entryY=-0.006;entryDx=0;entryDy=0;entryPerimeter=0;" edge="1" parent="1" source="4SUFtR9MNtc7UPsP3DeQ-4" target="4SUFtR9MNtc7UPsP3DeQ-2">
          <mxGeometry width="50" height="50" relative="1" as="geometry">
            <mxPoint x="330" y="330" as="sourcePoint" />
            <mxPoint x="20" y="320" as="targetPoint" />
            <Array as="points">
              <mxPoint x="32" y="270" />
            </Array>
          </mxGeometry>
        </mxCell>
        <mxCell id="4SUFtR9MNtc7UPsP3DeQ-7" value="Neues Spiel" style="text;html=1;align=center;verticalAlign=middle;resizable=0;points=[];autosize=1;strokeColor=none;fillColor=none;" vertex="1" parent="1">
          <mxGeometry x="165" y="240" width="90" height="30" as="geometry" />
        </mxCell>
        <mxCell id="4SUFtR9MNtc7UPsP3DeQ-8" value="" style="endArrow=classic;html=1;rounded=0;exitX=0.5;exitY=1;exitDx=0;exitDy=0;exitPerimeter=0;movable=1;resizable=1;rotatable=1;deletable=1;editable=1;locked=0;connectable=1;entryX=0.5;entryY=0;entryDx=0;entryDy=0;" edge="1" parent="1" source="4SUFtR9MNtc7UPsP3DeQ-4" target="4SUFtR9MNtc7UPsP3DeQ-3">
          <mxGeometry width="50" height="50" relative="1" as="geometry">
            <mxPoint x="330" y="330" as="sourcePoint" />
            <mxPoint x="510" y="320" as="targetPoint" />
            <Array as="points" />
          </mxGeometry>
        </mxCell>
        <mxCell id="4SUFtR9MNtc7UPsP3DeQ-9" value="Spiel laden" style="text;html=1;align=center;verticalAlign=middle;resizable=0;points=[];autosize=1;strokeColor=none;fillColor=none;" vertex="1" parent="1">
          <mxGeometry x="260" y="320" width="80" height="30" as="geometry" />
        </mxCell>
        <mxCell id="4SUFtR9MNtc7UPsP3DeQ-10" value="Auswahl des Charakters" style="strokeWidth=2;html=1;shape=mxgraph.flowchart.decision;whiteSpace=wrap;" vertex="1" parent="1">
          <mxGeometry x="-25" y="490" width="100" height="100" as="geometry" />
        </mxCell>
        <mxCell id="4SUFtR9MNtc7UPsP3DeQ-13" value="" style="endArrow=classic;html=1;rounded=0;exitX=0.5;exitY=1;exitDx=0;exitDy=0;entryX=0.5;entryY=0;entryDx=0;entryDy=0;entryPerimeter=0;" edge="1" parent="1" source="4SUFtR9MNtc7UPsP3DeQ-2" target="4SUFtR9MNtc7UPsP3DeQ-10">
          <mxGeometry width="50" height="50" relative="1" as="geometry">
            <mxPoint x="340" y="530" as="sourcePoint" />
            <mxPoint x="170" y="460" as="targetPoint" />
          </mxGeometry>
        </mxCell>
        <mxCell id="4SUFtR9MNtc7UPsP3DeQ-14" value="Spiel beenden" style="rounded=1;whiteSpace=wrap;html=1;absoluteArcSize=1;arcSize=14;strokeWidth=2;" vertex="1" parent="1">
          <mxGeometry x="600" y="225" width="130" height="90" as="geometry" />
        </mxCell>
        <mxCell id="4SUFtR9MNtc7UPsP3DeQ-15" value="" style="endArrow=classic;html=1;rounded=0;entryX=0;entryY=0.5;entryDx=0;entryDy=0;exitX=1;exitY=0.5;exitDx=0;exitDy=0;exitPerimeter=0;" edge="1" parent="1" source="4SUFtR9MNtc7UPsP3DeQ-4" target="4SUFtR9MNtc7UPsP3DeQ-14">
          <mxGeometry width="50" height="50" relative="1" as="geometry">
            <mxPoint x="420" y="340" as="sourcePoint" />
            <mxPoint x="470" y="290" as="targetPoint" />
          </mxGeometry>
        </mxCell>
        <mxCell id="4SUFtR9MNtc7UPsP3DeQ-16" value="Leicht" style="rounded=1;whiteSpace=wrap;html=1;absoluteArcSize=1;arcSize=14;strokeWidth=2;" vertex="1" parent="1">
          <mxGeometry x="-370" y="490" width="170" height="100" as="geometry" />
        </mxCell>
        <mxCell id="4SUFtR9MNtc7UPsP3DeQ-17" value="Schwer" style="rounded=1;whiteSpace=wrap;html=1;absoluteArcSize=1;arcSize=14;strokeWidth=2;" vertex="1" parent="1">
          <mxGeometry x="210" y="490" width="140" height="100" as="geometry" />
        </mxCell>
        <mxCell id="4SUFtR9MNtc7UPsP3DeQ-18" value="Mittel" style="rounded=1;whiteSpace=wrap;html=1;absoluteArcSize=1;arcSize=14;strokeWidth=2;" vertex="1" parent="1">
          <mxGeometry x="-120" y="660" width="290" height="100" as="geometry" />
        </mxCell>
        <mxCell id="4SUFtR9MNtc7UPsP3DeQ-19" value="" style="endArrow=classic;html=1;rounded=0;entryX=0;entryY=0.5;entryDx=0;entryDy=0;exitX=1;exitY=0.5;exitDx=0;exitDy=0;exitPerimeter=0;" edge="1" parent="1" source="4SUFtR9MNtc7UPsP3DeQ-10" target="4SUFtR9MNtc7UPsP3DeQ-17">
          <mxGeometry width="50" height="50" relative="1" as="geometry">
            <mxPoint y="620" as="sourcePoint" />
            <mxPoint x="50" y="570" as="targetPoint" />
          </mxGeometry>
        </mxCell>
        <mxCell id="4SUFtR9MNtc7UPsP3DeQ-20" value="" style="endArrow=classic;html=1;rounded=0;entryX=0.5;entryY=0;entryDx=0;entryDy=0;exitX=0.5;exitY=1;exitDx=0;exitDy=0;exitPerimeter=0;" edge="1" parent="1" source="4SUFtR9MNtc7UPsP3DeQ-10" target="4SUFtR9MNtc7UPsP3DeQ-18">
          <mxGeometry width="50" height="50" relative="1" as="geometry">
            <mxPoint x="85" y="550" as="sourcePoint" />
            <mxPoint x="140" y="550" as="targetPoint" />
          </mxGeometry>
        </mxCell>
        <mxCell id="4SUFtR9MNtc7UPsP3DeQ-21" value="" style="endArrow=classic;html=1;rounded=0;entryX=1;entryY=0.5;entryDx=0;entryDy=0;exitX=0;exitY=0.5;exitDx=0;exitDy=0;exitPerimeter=0;" edge="1" parent="1" source="4SUFtR9MNtc7UPsP3DeQ-10" target="4SUFtR9MNtc7UPsP3DeQ-16">
          <mxGeometry width="50" height="50" relative="1" as="geometry">
            <mxPoint x="95" y="560" as="sourcePoint" />
            <mxPoint x="150" y="560" as="targetPoint" />
          </mxGeometry>
        </mxCell>
        <mxCell id="4SUFtR9MNtc7UPsP3DeQ-22" value="" style="endArrow=classic;html=1;rounded=0;exitX=0.5;exitY=1;exitDx=0;exitDy=0;entryX=0.5;entryY=0;entryDx=0;entryDy=0;entryPerimeter=0;" edge="1" parent="1" source="4SUFtR9MNtc7UPsP3DeQ-1" target="4SUFtR9MNtc7UPsP3DeQ-4">
          <mxGeometry width="50" height="50" relative="1" as="geometry">
            <mxPoint x="370" y="350" as="sourcePoint" />
            <mxPoint x="420" y="300" as="targetPoint" />
          </mxGeometry>
        </mxCell>
        <mxCell id="4SUFtR9MNtc7UPsP3DeQ-23" value="Spiel beenden" style="text;html=1;align=center;verticalAlign=middle;resizable=0;points=[];autosize=1;strokeColor=none;fillColor=none;" vertex="1" parent="1">
          <mxGeometry x="420" y="238" width="100" height="30" as="geometry" />
        </mxCell>
        <mxCell id="4SUFtR9MNtc7UPsP3DeQ-24" value="Verlässt Startlokation" style="rounded=1;whiteSpace=wrap;html=1;absoluteArcSize=1;arcSize=14;strokeWidth=2;" vertex="1" parent="1">
          <mxGeometry x="-120" y="820" width="290" height="100" as="geometry" />
        </mxCell>
        <mxCell id="4SUFtR9MNtc7UPsP3DeQ-25" value="Trifft auf Gegner" style="rounded=1;whiteSpace=wrap;html=1;absoluteArcSize=1;arcSize=14;strokeWidth=2;" vertex="1" parent="1">
          <mxGeometry x="-120" y="990" width="290" height="100" as="geometry" />
        </mxCell>
        <mxCell id="4SUFtR9MNtc7UPsP3DeQ-26" value="Gewinnen/Verlkieren" style="strokeWidth=2;html=1;shape=mxgraph.flowchart.decision;whiteSpace=wrap;" vertex="1" parent="1">
          <mxGeometry x="-25" y="1150" width="100" height="100" as="geometry" />
        </mxCell>
        <mxCell id="4SUFtR9MNtc7UPsP3DeQ-27" value="Besonderes Item Gold&lt;div&gt;&lt;br&gt;&lt;/div&gt;&lt;div&gt;item : Gold&lt;/div&gt;&lt;div&gt;&lt;br&gt;&lt;/div&gt;&lt;div&gt;1 : 5&lt;/div&gt;" style="rounded=1;whiteSpace=wrap;html=1;absoluteArcSize=1;arcSize=14;strokeWidth=2;" vertex="1" parent="1">
          <mxGeometry x="-120" y="1380" width="290" height="100" as="geometry" />
        </mxCell>
        <mxCell id="4SUFtR9MNtc7UPsP3DeQ-28" value="Game Over" style="rounded=1;whiteSpace=wrap;html=1;absoluteArcSize=1;arcSize=14;strokeWidth=2;" vertex="1" parent="1">
          <mxGeometry x="230" y="1300" width="290" height="100" as="geometry" />
        </mxCell>
        <mxCell id="4SUFtR9MNtc7UPsP3DeQ-29" value="&lt;br&gt;&lt;div&gt;Mögliches treffen der anderen Charaktere&lt;/div&gt;&lt;div&gt;&lt;br&gt;&lt;/div&gt;&lt;div&gt;Händler Markt&lt;/div&gt;&lt;div&gt;&lt;br&gt;&lt;/div&gt;&lt;div&gt;Auswahl aus Angebot&amp;nbsp;&lt;/div&gt;&lt;div&gt;&lt;br&gt;&lt;/div&gt;&lt;div&gt;Heiltrank etc&amp;nbsp;&lt;/div&gt;" style="rounded=1;whiteSpace=wrap;html=1;absoluteArcSize=1;arcSize=14;strokeWidth=2;" vertex="1" parent="1">
          <mxGeometry x="-125" y="1520" width="290" height="100" as="geometry" />
        </mxCell>
        <mxCell id="4SUFtR9MNtc7UPsP3DeQ-30" value="Endgegner&lt;div&gt;&lt;br&gt;&lt;/div&gt;&lt;div&gt;Anwenden des speziellen Item, boostet Wertes, bzw Heiltrank&lt;/div&gt;" style="rounded=1;whiteSpace=wrap;html=1;absoluteArcSize=1;arcSize=14;strokeWidth=2;" vertex="1" parent="1">
          <mxGeometry x="-125" y="1730" width="290" height="100" as="geometry" />
        </mxCell>
        <mxCell id="4SUFtR9MNtc7UPsP3DeQ-31" value="Gewinnen/Verlkieren" style="strokeWidth=2;html=1;shape=mxgraph.flowchart.decision;whiteSpace=wrap;" vertex="1" parent="1">
          <mxGeometry x="-30" y="1880" width="100" height="100" as="geometry" />
        </mxCell>
        <mxCell id="4SUFtR9MNtc7UPsP3DeQ-32" value="&lt;div&gt;Endscreen&lt;/div&gt;" style="rounded=1;whiteSpace=wrap;html=1;absoluteArcSize=1;arcSize=14;strokeWidth=2;" vertex="1" parent="1">
          <mxGeometry x="-125" y="2070" width="290" height="100" as="geometry" />
        </mxCell>
        <mxCell id="4SUFtR9MNtc7UPsP3DeQ-33" value="Gameover" style="rounded=1;whiteSpace=wrap;html=1;absoluteArcSize=1;arcSize=14;strokeWidth=2;" vertex="1" parent="1">
          <mxGeometry x="250" y="1870" width="290" height="100" as="geometry" />
        </mxCell>
        <mxCell id="4SUFtR9MNtc7UPsP3DeQ-34" value="Gewinnen/Verlkieren" style="strokeWidth=2;html=1;shape=mxgraph.flowchart.decision;whiteSpace=wrap;" vertex="1" parent="1">
          <mxGeometry x="-50" y="2260" width="100" height="100" as="geometry" />
        </mxCell>
        <mxCell id="4SUFtR9MNtc7UPsP3DeQ-35" value="Zurück zur Charkterauswahl" style="rounded=1;whiteSpace=wrap;html=1;absoluteArcSize=1;arcSize=14;strokeWidth=2;" vertex="1" parent="1">
          <mxGeometry x="-390" y="2270" width="290" height="100" as="geometry" />
        </mxCell>
        <mxCell id="4SUFtR9MNtc7UPsP3DeQ-36" value="Beenden" style="rounded=1;whiteSpace=wrap;html=1;absoluteArcSize=1;arcSize=14;strokeWidth=2;" vertex="1" parent="1">
          <mxGeometry x="190" y="2270" width="290" height="100" as="geometry" />
        </mxCell>
        <mxCell id="4SUFtR9MNtc7UPsP3DeQ-39" value="" style="endArrow=classic;html=1;rounded=0;entryX=0.5;entryY=0;entryDx=0;entryDy=0;exitX=0.5;exitY=1;exitDx=0;exitDy=0;" edge="1" parent="1" source="4SUFtR9MNtc7UPsP3DeQ-18" target="4SUFtR9MNtc7UPsP3DeQ-24">
          <mxGeometry width="50" height="50" relative="1" as="geometry">
            <mxPoint x="30" y="760" as="sourcePoint" />
            <mxPoint x="35" y="670" as="targetPoint" />
            <Array as="points" />
          </mxGeometry>
        </mxCell>
        <mxCell id="4SUFtR9MNtc7UPsP3DeQ-40" value="" style="endArrow=classic;html=1;rounded=0;entryX=0.5;entryY=0;entryDx=0;entryDy=0;exitX=0.5;exitY=1;exitDx=0;exitDy=0;" edge="1" parent="1" source="4SUFtR9MNtc7UPsP3DeQ-24" target="4SUFtR9MNtc7UPsP3DeQ-25">
          <mxGeometry width="50" height="50" relative="1" as="geometry">
            <mxPoint x="35" y="600" as="sourcePoint" />
            <mxPoint x="35" y="670" as="targetPoint" />
          </mxGeometry>
        </mxCell>
        <mxCell id="4SUFtR9MNtc7UPsP3DeQ-41" value="" style="endArrow=classic;html=1;rounded=0;entryX=0.5;entryY=0;entryDx=0;entryDy=0;exitX=0.5;exitY=1;exitDx=0;exitDy=0;entryPerimeter=0;" edge="1" parent="1" source="4SUFtR9MNtc7UPsP3DeQ-25" target="4SUFtR9MNtc7UPsP3DeQ-26">
          <mxGeometry width="50" height="50" relative="1" as="geometry">
            <mxPoint x="19.23" y="1080" as="sourcePoint" />
            <mxPoint x="19.23" y="1150" as="targetPoint" />
          </mxGeometry>
        </mxCell>
        <mxCell id="4SUFtR9MNtc7UPsP3DeQ-42" value="" style="endArrow=classic;html=1;rounded=0;exitX=0.5;exitY=1;exitDx=0;exitDy=0;entryX=0.5;entryY=0;entryDx=0;entryDy=0;exitPerimeter=0;" edge="1" parent="1" source="4SUFtR9MNtc7UPsP3DeQ-26" target="4SUFtR9MNtc7UPsP3DeQ-27">
          <mxGeometry width="50" height="50" relative="1" as="geometry">
            <mxPoint x="-30" y="1200" as="sourcePoint" />
            <mxPoint x="-283" y="1250" as="targetPoint" />
            <Array as="points" />
          </mxGeometry>
        </mxCell>
        <mxCell id="4SUFtR9MNtc7UPsP3DeQ-43" value="" style="endArrow=classic;html=1;rounded=0;exitX=1;exitY=0.5;exitDx=0;exitDy=0;entryX=0.5;entryY=0;entryDx=0;entryDy=0;exitPerimeter=0;" edge="1" parent="1" source="4SUFtR9MNtc7UPsP3DeQ-26" target="4SUFtR9MNtc7UPsP3DeQ-28">
          <mxGeometry width="50" height="50" relative="1" as="geometry">
            <mxPoint x="90" y="1200" as="sourcePoint" />
            <mxPoint x="375" y="1300" as="targetPoint" />
            <Array as="points">
              <mxPoint x="230" y="1200" />
              <mxPoint x="375" y="1200" />
            </Array>
          </mxGeometry>
        </mxCell>
        <mxCell id="4SUFtR9MNtc7UPsP3DeQ-45" value="Speicherstand" style="strokeWidth=2;html=1;shape=mxgraph.flowchart.database;whiteSpace=wrap;" vertex="1" parent="1">
          <mxGeometry x="580" y="385" width="115" height="60" as="geometry" />
        </mxCell>
        <mxCell id="4SUFtR9MNtc7UPsP3DeQ-46" value="" style="endArrow=classic;html=1;rounded=0;entryX=1;entryY=0.5;entryDx=0;entryDy=0;exitX=0;exitY=0.5;exitDx=0;exitDy=0;exitPerimeter=0;" edge="1" parent="1" source="4SUFtR9MNtc7UPsP3DeQ-45" target="4SUFtR9MNtc7UPsP3DeQ-3">
          <mxGeometry width="50" height="50" relative="1" as="geometry">
            <mxPoint x="140" y="520" as="sourcePoint" />
            <mxPoint x="190" y="470" as="targetPoint" />
          </mxGeometry>
        </mxCell>
      </root>
    </mxGraphModel>
  </diagram>
</mxfile>
